<svg width="28" height="28" viewBox="0 0 28 28" fill="none" xmlns="http://www.w3.org/2000/svg">
<path d="M5.83333 0V4.66667H8.16667V0H5.83333ZM19.8333 0V4.66667H22.1667V0H19.8333ZM1.16667 3.5C0.524089 3.5 0 4.02409 0 4.66667V8.16667C0 8.80924 0.524089 9.33333 1.16667 9.33333V28H26.8333V9.33333C27.4759 9.33333 28 8.80924 28 8.16667V4.66667C28 4.02409 27.4759 3.5 26.8333 3.5H23.3333V5.83333H18.6667V3.5H9.33333V5.83333H4.66667V3.5H1.16667ZM3.5 9.33333H24.5V25.6667H3.5V9.33333ZM5.83333 11.6667V14H8.16667V11.6667H5.83333ZM10.5 11.6667V14H12.8333V11.6667H10.5ZM15.1667 11.6667V14H17.5V11.6667H15.1667ZM19.8333 11.6667V14H22.1667V11.6667H19.8333ZM5.83333 16.3333V18.6667H8.16667V16.3333H5.83333ZM10.5 16.3333V18.6667H12.8333V16.3333H10.5ZM15.1667 16.3333V18.6667H17.5V16.3333H15.1667ZM19.8333 16.3333V18.6667H22.1667V16.3333H19.8333ZM5.83333 21V23.3333H8.16667V21H5.83333ZM10.5 21V23.3333H12.8333V21H10.5ZM15.1667 21V23.3333H17.5V21H15.1667ZM19.8333 21V23.3333H22.1667V21H19.8333Z" fill="#3F3F3F"/>
</svg>
