<svg width="29" height="22" viewBox="0 0 29 22" fill="none" xmlns="http://www.w3.org/2000/svg">
<path d="M24.981 2.43969C22.4716 0.367142 18.5018 0.01582 18.3319 0.003182C18.0684 -0.0195653 17.8172 0.132085 17.7088 0.382307C17.699 0.397472 17.6128 0.6022 17.5167 0.920664C19.1765 1.2088 21.2156 1.7876 23.0601 2.96288C23.3556 3.14992 23.4468 3.54926 23.2645 3.85256C23.1439 4.05223 22.9395 4.16092 22.7277 4.16092C22.6144 4.16092 22.4986 4.12806 22.3952 4.06234C19.2233 2.04287 15.2634 1.94177 14.5 1.94177C13.7366 1.94177 9.7742 2.04287 6.60479 4.06234C6.30927 4.25191 5.92018 4.15839 5.73794 3.85509C5.55324 3.54926 5.64436 3.15245 5.93988 2.96288C7.78439 1.79012 9.82345 1.2088 11.4833 0.923192C11.3872 0.6022 11.301 0.4 11.2936 0.382307C11.1828 0.132085 10.9341 -0.02462 10.6681 0.003182C10.4982 0.01582 6.52845 0.367142 3.98455 2.46749C2.65718 3.72872 0 11.0989 0 17.4707C0 17.5845 0.0295516 17.6931 0.0837299 17.7917C1.91593 21.0977 6.91754 21.9621 8.05774 22C8.06267 22 8.07006 22 8.07745 22C8.27938 22 8.46901 21.9014 8.58721 21.7346L9.73973 20.1069C6.62942 19.2829 5.04102 17.8827 4.9499 17.7993C4.68886 17.5642 4.66423 17.1548 4.89572 16.8869C5.12475 16.619 5.52369 16.5937 5.78473 16.8287C5.82167 16.8641 8.74728 19.4118 14.5 19.4118C20.2626 19.4118 23.1882 16.854 23.2177 16.8287C23.4788 16.5962 23.8753 16.619 24.1067 16.8894C24.3358 17.1573 24.3111 17.5642 24.0501 17.7993C23.959 17.8827 22.3706 19.2829 19.2603 20.1069L20.4128 21.7346C20.531 21.9014 20.7206 22 20.9226 22C20.9299 22 20.9373 22 20.9423 22C22.0825 21.9621 27.0841 21.0977 28.9163 17.7917C28.9704 17.6931 29 17.5845 29 17.4707C29 11.0989 26.3428 3.72872 24.981 2.43969ZM10.4022 14.8826C9.18317 14.8826 8.19565 13.725 8.19565 12.2944C8.19565 10.8638 9.18317 9.70625 10.4022 9.70625C11.6212 9.70625 12.6087 10.8638 12.6087 12.2944C12.6087 13.725 11.6212 14.8826 10.4022 14.8826ZM18.5978 14.8826C17.3788 14.8826 16.3913 13.725 16.3913 12.2944C16.3913 10.8638 17.3788 9.70625 18.5978 9.70625C19.8168 9.70625 20.8043 10.8638 20.8043 12.2944C20.8043 13.725 19.8168 14.8826 18.5978 14.8826Z" fill="#1A6DE9"/>
</svg>
