<svg width="34" height="34" viewBox="0 0 34 34" fill="none" xmlns="http://www.w3.org/2000/svg">
<path d="M4.25 15.5833H7.08333V18.4167H4.25V15.5833ZM4.25 9.91667H7.08333V12.75H4.25V9.91667ZM4.25 21.25H7.08333V24.0833H4.25V21.25ZM4.25 4.25H7.08333V7.08333H4.25V4.25ZM4.25 26.9167H7.08333V29.75H4.25V26.9167Z" fill="#3F3F3F"/>
<path d="M9.91663 15.5833H29.75V18.4167H9.91663V15.5833ZM9.91663 9.91667H29.75V12.75H9.91663V9.91667ZM9.91663 21.25H29.75V24.0833H9.91663V21.25ZM9.91663 4.25H29.75V7.08333H9.91663V4.25ZM9.91663 26.9167H29.75V29.75H9.91663V26.9167Z" fill="#3F3F3F"/>
</svg>
