<svg width="24" height="28" viewBox="0 0 24 28" fill="none" xmlns="http://www.w3.org/2000/svg">
<path d="M3.6 0.799987C3.52049 0.798862 3.44156 0.813551 3.36777 0.843199C3.29399 0.872848 3.22684 0.916864 3.17022 0.972691C3.1136 1.02852 3.06864 1.09504 3.03795 1.1684C3.00726 1.24175 2.99145 1.32047 2.99145 1.39999C2.99145 1.4795 3.00726 1.55822 3.03795 1.63158C3.06864 1.70493 3.1136 1.77146 3.17022 1.82728C3.22684 1.88311 3.29399 1.92713 3.36777 1.95677C3.44156 1.98642 3.52049 2.00111 3.6 1.99999H20.4C20.4795 2.00111 20.5584 1.98642 20.6322 1.95677C20.706 1.92713 20.7732 1.88311 20.8298 1.82728C20.8864 1.77146 20.9314 1.70493 20.9621 1.63158C20.9927 1.55822 21.0085 1.4795 21.0085 1.39999C21.0085 1.32047 20.9927 1.24175 20.9621 1.1684C20.9314 1.09504 20.8864 1.02852 20.8298 0.972691C20.7732 0.916864 20.706 0.872848 20.6322 0.843199C20.5584 0.813551 20.4795 0.798862 20.4 0.799987H3.6ZM3 3.19999C2.92049 3.19886 2.84156 3.21355 2.76777 3.2432C2.69399 3.27285 2.62684 3.31686 2.57022 3.37269C2.5136 3.42852 2.46864 3.49504 2.43795 3.5684C2.40726 3.64175 2.39145 3.72047 2.39145 3.79999C2.39145 3.8795 2.40726 3.95822 2.43795 4.03158C2.46864 4.10493 2.5136 4.17146 2.57022 4.22728C2.62684 4.28311 2.69399 4.32713 2.76777 4.35677C2.84156 4.38642 2.92049 4.40111 3 4.39999H21C21.0795 4.40111 21.1584 4.38642 21.2322 4.35677C21.306 4.32713 21.3732 4.28311 21.4298 4.22728C21.4864 4.17146 21.5314 4.10493 21.5621 4.03158C21.5927 3.95822 21.6085 3.8795 21.6085 3.79999C21.6085 3.72047 21.5927 3.64175 21.5621 3.5684C21.5314 3.49504 21.4864 3.42852 21.4298 3.37269C21.3732 3.31686 21.306 3.27285 21.2322 3.2432C21.1584 3.21355 21.0795 3.19886 21 3.19999H3ZM2.4 5.59999C2.24088 5.6 2.08827 5.66322 1.97575 5.77574C1.86324 5.88826 1.80002 6.04086 1.8 6.19999V13.4H3V6.79999H21V13.4H22.2V6.19999C22.2 6.04086 22.1368 5.88826 22.0242 5.77574C21.9117 5.66322 21.7591 5.6 21.6 5.59999H2.4ZM8.98242 8.59999C8.81742 8.60539 8.66214 8.67795 8.55234 8.80155L4.46367 13.4H14.0484L9.42422 8.77577C9.30782 8.65937 9.14442 8.60359 8.98242 8.59999ZM18.3 8.59999C18.0613 8.59999 17.8324 8.69481 17.6636 8.86359C17.4948 9.03237 17.4 9.26129 17.4 9.49999C17.4 9.73868 17.4948 9.9676 17.6636 10.1364C17.8324 10.3052 18.0613 10.4 18.3 10.4C18.5387 10.4 18.7676 10.3052 18.9364 10.1364C19.1052 9.9676 19.2 9.73868 19.2 9.49999C19.2 9.26129 19.1052 9.03237 18.9364 8.86359C18.7676 8.69481 18.5387 8.59999 18.3 8.59999ZM15.6 9.79999C15.4466 9.79999 15.2931 9.85847 15.1758 9.97577L13.7484 11.4031L14.8969 12.5515L15.7453 13.4H17.7516H19.4473L16.0242 9.97577C15.9069 9.85847 15.7535 9.79999 15.6 9.79999ZM0.6 14.6C0.2682 14.6 0 14.8682 0 15.2V26.6C0 26.9318 0.2682 27.2 0.6 27.2H23.4C23.7318 27.2 24 26.9318 24 26.6V15.2C24 14.8682 23.7318 14.6 23.4 14.6H0.6ZM9.6 17H14.4C14.7318 17 15 17.2682 15 17.6C15 17.9318 14.7318 18.2 14.4 18.2H9.6C9.2682 18.2 9 17.9318 9 17.6C9 17.2682 9.2682 17 9.6 17Z" fill="#1A6DE9"/>
</svg>
