<svg width="318" height="33" viewBox="0 0 318 33" fill="none" xmlns="http://www.w3.org/2000/svg">
<path d="M49.396 15.7117C49.396 20.9852 53.212 25.0082 58.459 25.0082C63.759 25.0082 67.575 20.9308 67.575 15.7117C67.575 10.4382 63.759 6.41515 58.459 6.41515C53.159 6.36079 49.396 10.4382 49.396 15.7117ZM52.841 15.7117C52.841 12.3954 55.173 9.89456 58.459 9.89456C61.745 9.89456 64.077 12.3954 64.077 15.7117C64.077 19.028 61.745 21.5288 58.459 21.5288C55.173 21.5288 52.841 18.9736 52.841 15.7117ZM81.832 24.7364H85.33L79.606 6.63261H76.055L70.225 24.7364H73.67L74.465 22.1812H80.984L81.832 24.7364ZM75.578 18.7562L77.751 11.9061L79.924 18.7562H75.578ZM97.891 11.9061H101.336C101.336 8.58978 98.633 6.36078 95.029 6.36078C91.319 6.36078 88.775 8.75288 88.775 12.0692C88.775 14.3525 90.047 16.201 92.326 16.8534C93.916 17.2883 95.771 17.1796 96.884 17.6145C97.573 17.8863 98.156 18.43 98.156 19.2998C98.156 20.6046 97.043 21.6376 95.188 21.6376C93.386 21.6376 92.008 20.659 92.008 19.2455H88.563C88.563 22.6705 91.372 25.0082 95.135 25.0082C99.004 25.0082 101.548 22.5074 101.548 19.1367C101.548 16.6903 100.17 14.9506 97.944 14.2438C96.248 13.7002 94.552 13.972 93.386 13.5371C92.644 13.2652 92.167 12.7216 92.167 11.9061C92.167 10.71 93.227 9.73147 94.923 9.73147C96.725 9.73147 97.891 10.6013 97.891 11.9061ZM106.424 24.7364H109.869V6.63261H106.424V24.7364ZM124.02 11.9061H127.465C127.465 8.58978 124.762 6.36078 121.158 6.36078C117.448 6.36078 114.904 8.75288 114.904 12.0692C114.904 14.3525 116.176 16.201 118.455 16.8534C120.045 17.2883 121.9 17.1796 123.013 17.6145C123.702 17.8863 124.285 18.43 124.285 19.2998C124.285 20.6046 123.172 21.6376 121.317 21.6376C119.515 21.6376 118.137 20.659 118.137 19.2455H114.692C114.692 22.6705 117.501 25.0082 121.264 25.0082C125.133 25.0082 127.677 22.5074 127.677 19.1367C127.677 16.6903 126.299 14.9506 124.073 14.2438C122.377 13.7002 120.681 13.972 119.515 13.5371C118.773 13.2652 118.296 12.7216 118.296 11.9061C118.296 10.71 119.356 9.73147 121.052 9.73147C122.801 9.73147 123.967 10.6013 124.02 11.9061ZM141.457 24.7364H144.902V17.397H150.573V13.9176H144.902V10.112H155.131V6.63261H141.457V24.7364ZM158.311 15.7117C158.311 20.9852 162.127 25.0082 167.374 25.0082C172.621 25.0082 176.49 20.9308 176.49 15.7117C176.49 10.4382 172.674 6.41515 167.374 6.41515C162.074 6.41515 158.311 10.4382 158.311 15.7117ZM161.756 15.7117C161.756 12.3954 164.088 9.89456 167.374 9.89456C170.66 9.89456 172.992 12.3954 172.992 15.7117C172.992 19.028 170.66 21.5288 167.374 21.5288C164.088 21.5288 161.756 18.9736 161.756 15.7117ZM195.358 6.63261H191.913V17.7776C191.913 19.8979 190.429 21.5288 188.309 21.5288C186.189 21.5288 184.705 19.8979 184.705 17.7776V6.63261H181.26V17.8863C181.26 21.855 184.228 24.9539 188.362 24.9539C192.337 24.9539 195.411 21.9094 195.411 17.8863V6.63261H195.358ZM211.682 6.63261V18.43L204.315 6.63261H200.87V24.7364H204.315V12.939L211.682 24.7364H215.127V6.63261H211.682ZM226.628 6.63261H220.745V24.7364H226.628C231.769 24.7364 235.426 20.8221 235.426 15.7117C235.426 10.6013 231.769 6.63261 226.628 6.63261ZM224.19 10.112H226.628C229.755 10.112 232.034 12.5585 232.034 15.7117C232.034 18.8649 229.808 21.257 226.628 21.257H224.19V10.112ZM249.736 24.7364H253.234L247.51 6.63261H243.959L238.182 24.7364H241.627L242.422 22.1812H248.941L249.736 24.7364ZM243.482 18.7562L245.655 11.9061L247.828 18.7562H243.482ZM259.382 24.7364H262.827V10.112H267.968V6.63261H254.294V10.112H259.435V24.7364H259.382ZM272.367 24.7364H275.812V6.63261H272.367V24.7364ZM280.688 15.7117C280.688 20.9852 284.504 25.0082 289.751 25.0082C295.051 25.0082 298.867 20.9308 298.867 15.7117C298.867 10.4382 295.051 6.41515 289.751 6.41515C284.504 6.36079 280.688 10.4382 280.688 15.7117ZM284.133 15.7117C284.133 12.3954 286.465 9.89456 289.751 9.89456C293.037 9.89456 295.369 12.3954 295.369 15.7117C295.369 19.028 293.037 21.5288 289.751 21.5288C286.465 21.5288 284.133 18.9736 284.133 15.7117ZM314.555 6.63261V18.43L307.188 6.63261H303.743V24.7364H307.188V12.939L314.555 24.7364H318V6.63261H314.555ZM28.938 6.52389C26.5 3.31631 22.896 1.30477 18.974 1.30477C11.342 1.30477 5.724 8.58978 5.724 16.5272C5.724 22.0181 9.275 26.1499 13.25 26.1499C13.621 26.1499 13.992 26.0956 14.363 26.0412C11.713 24.0297 10.017 20.4415 10.017 16.5272C10.017 10.2751 14.151 5.38221 18.974 5.38221C24.274 5.38221 27.931 10.7644 27.931 16.5272C27.931 20.7677 26.447 24.9539 23.85 28.0527C21.571 30.771 18.656 32.4563 15.476 33C15.476 33 15.741 33 16.112 33C25.016 33 32.224 25.6063 32.224 16.4728C32.171 12.7216 30.952 9.24218 28.938 6.52389ZM26.5 16.4728C26.5 10.9819 22.949 6.85007 18.974 6.85007C18.603 6.85007 18.232 6.90444 17.861 6.95881C20.511 8.97034 22.207 12.5585 22.207 16.4728C22.207 22.7249 18.073 27.6178 13.25 27.6178C7.95 27.6178 4.293 22.2356 4.293 16.4728C4.293 12.2323 5.777 8.04612 8.374 4.94727C10.653 2.22898 13.568 0.543657 16.748 0C16.748 0 16.483 0 16.112 0C7.208 0 0 7.39374 0 16.5272C0 20.2784 1.219 23.7578 3.286 26.5305C5.724 29.7381 9.328 31.7496 13.25 31.7496C20.882 31.6952 26.5 24.3558 26.5 16.4728Z" fill="#0C84F4"/>
</svg>
