<svg width="17" height="17" viewBox="0 0 17 17" fill="none" xmlns="http://www.w3.org/2000/svg">
<path d="M6.98002 0.140015C3.40861 0.140015 0.52002 3.02861 0.52002 6.60002C0.52002 10.1714 3.40861 13.06 6.98002 13.06C8.2551 13.06 9.43518 12.686 10.4356 12.0506L15.1025 16.7175L16.7175 15.1025L12.11 10.5069C12.9383 9.42033 13.44 8.074 13.44 6.60002C13.44 3.02861 10.5514 0.140015 6.98002 0.140015ZM6.98002 1.66001C9.71572 1.66001 11.92 3.86431 11.92 6.60002C11.92 9.33572 9.71572 11.54 6.98002 11.54C4.24432 11.54 2.04002 9.33572 2.04002 6.60002C2.04002 3.86431 4.24432 1.66001 6.98002 1.66001Z" fill="#949494"/>
</svg>
