<svg width="23" height="22" viewBox="0 0 23 22" fill="none" xmlns="http://www.w3.org/2000/svg">
<path d="M1.5498 9.45741C8.62724 5.87974 17.786 1.51783 19.0503 0.914107C22.3665 -0.666045 23.3841 -0.363215 22.8767 3.13616C22.5124 5.65133 21.461 13.9785 20.6231 19.1616C20.1258 22.2352 19.0103 22.5995 17.2561 21.2697C16.4125 20.6298 12.1547 17.3944 11.2306 16.6347C10.387 15.9424 9.2236 15.1096 10.6827 13.4693C11.2019 12.885 14.6055 9.1507 17.2572 6.24405C17.6047 5.86227 17.1683 5.23526 16.7673 5.54133C13.1931 8.26486 8.23756 12.0451 7.60685 12.5375C6.65403 13.281 5.73894 13.622 4.09628 13.0797C2.85514 12.6701 1.64272 12.1816 1.17081 11.9952C-0.646416 11.2783 -0.215057 10.3497 1.5498 9.45741Z" fill="#1A6DE9"/>
</svg>
