<svg width="32" height="27" viewBox="0 0 32 27" fill="none" xmlns="http://www.w3.org/2000/svg">
<path d="M32.0399 3.68C30.8574 4.205 29.5899 4.5575 28.2574 4.7175C29.6174 3.9025 30.6624 2.6125 31.1524 1.0775C29.8824 1.83 28.4699 2.3775 26.9724 2.6725C25.7724 1.3925 24.0624 0.595001 22.1699 0.595001C18.5349 0.595001 15.5874 3.54 15.5874 7.175C15.5874 7.69 15.6474 8.1925 15.7599 8.675C10.2899 8.4 5.4424 5.78 2.1949 1.7975C1.6274 2.7725 1.3049 3.9025 1.3049 5.1075C1.3049 7.39 2.4649 9.405 4.2324 10.5875C3.1524 10.5525 2.1374 10.255 1.2499 9.7625C1.2499 9.79 1.2499 9.8175 1.2499 9.845C1.2499 13.035 3.5199 15.6925 6.5274 16.3C5.9774 16.45 5.3949 16.53 4.7949 16.53C4.3699 16.53 3.9574 16.49 3.5549 16.41C4.3949 19.0225 6.8249 20.93 9.7024 20.9825C7.4524 22.7475 4.6149 23.7975 1.5299 23.7975C0.997402 23.7975 0.474903 23.7675 -0.0375977 23.705C2.8724 25.575 6.3324 26.6625 10.0499 26.6625C22.1549 26.6625 28.7749 16.635 28.7749 7.94C28.7749 7.655 28.7674 7.3675 28.7574 7.0875C30.0424 6.16 31.1574 5 32.0399 3.68Z" fill="#1A6DE9"/>
</svg>
